<?xml version="1.0" standalone="no"?>
<!DOCTYPE svg PUBLIC "-//W3C//DTD SVG 20010904//EN"
 "http://www.w3.org/TR/2001/REC-SVG-20010904/DTD/svg10.dtd">
<svg version="1.0" xmlns="http://www.w3.org/2000/svg"
 width="512.000000pt" height="512.000000pt" viewBox="0 0 512.000000 512.000000"
 preserveAspectRatio="xMidYMid meet">

<g transform="translate(0.000000,512.000000) scale(0.100000,-0.100000)"
fill="#000000" stroke="none">
<path d="M1130 4885 c-56 -18 -109 -61 -148 -121 -63 -94 -61 -55 -63 -1427
-1 -1176 0 -1249 17 -1268 32 -35 67 -25 124 38 91 102 145 190 173 283 7 23
13 406 16 1135 6 1074 6 1101 26 1140 26 51 73 82 138 90 29 3 808 5 1732 3
l1680 -3 41 -22 c52 -28 91 -73 104 -122 7 -27 9 -584 8 -1727 -3 -1678 -3
-1689 -23 -1724 -12 -19 -36 -43 -55 -55 -35 -20 -49 -20 -1185 -23 -1398 -4
-1610 4 -1733 67 -110 56 -94 136 53 265 45 39 144 126 220 193 316 275 686
681 791 869 79 142 108 308 68 402 -34 82 -131 142 -232 142 -216 0 -617 -244
-947 -576 -122 -124 -187 -205 -310 -394 -211 -321 -258 -407 -311 -567 -33
-98 -36 -117 -43 -278 -7 -163 -8 -174 -35 -219 -32 -54 -92 -102 -276 -215
-320 -199 -437 -228 -606 -147 -124 59 -167 51 -260 -46 -71 -73 -87 -108 -88
-195 -1 -58 3 -77 20 -100 30 -41 80 -63 144 -63 109 0 207 38 344 134 51 35
162 107 247 159 85 51 214 133 287 181 183 120 248 150 341 154 68 4 103 0
226 -28 75 -16 150 -30 195 -35 25 -3 86 -10 135 -15 61 -8 548 -10 1491 -8
l1400 3 76 38 c81 40 150 104 184 174 18 37 19 97 19 1893 0 2082 8 1875 -77
1957 -81 79 89 73 -1997 72 -1568 0 -1873 -3 -1911 -14z m1544 -2206 c52 -14
120 -79 134 -127 32 -107 -3 -259 -87 -372 -64 -86 -381 -403 -623 -622 -172
-156 -298 -228 -369 -213 -119 26 -172 219 -114 419 39 136 77 201 266 461 89
122 247 286 329 342 63 42 145 83 210 104 63 20 194 25 254 8z"/>
</g>
</svg>
